<svg version="1.1" id="Layer_1" xmlns="http://www.w3.org/2000/svg" xmlns:xlink="http://www.w3.org/1999/xlink" x="0px" y="0px"
	 width="100%" viewBox="0 0 912 1024" enable-background="new 0 0 912 1024" xml:space="preserve">
<path fill="#000000" opacity="1.000000" stroke="none" 
	d="
M778.988525,785.945679 
	C761.845337,794.430969 745.108337,802.882080 728.000122,810.599426 
	C713.618591,817.086792 699.569885,824.311646 685.369629,831.201233 
	C665.670837,840.758606 645.849426,850.054932 626.279419,859.888306 
	C603.885437,871.140625 581.238159,881.893616 558.614990,892.683411 
	C548.122437,897.687744 537.832825,903.166565 527.251038,907.883850 
	C517.974487,912.019226 508.394379,916.116272 497.747559,916.259277 
	C485.352875,916.425720 474.429779,911.929565 463.617493,906.658142 
	C446.612885,898.367737 429.531769,890.234375 412.500366,881.998779 
	C403.397400,877.597046 394.352722,873.074585 385.243134,868.686768 
	C363.855652,858.385010 342.405640,848.212280 321.058258,837.828430 
	C308.082214,831.516602 295.289551,824.828735 282.342255,818.456665 
	C269.410583,812.092407 256.387573,805.913757 243.407013,799.648743 
	C227.715668,792.075256 212.004807,784.541809 196.343704,776.906250 
	C183.202866,770.499512 170.095856,764.022034 157.020279,757.482971 
	C142.727280,750.334961 135.494705,738.503296 135.092957,722.718567 
	C134.732651,708.561279 135.381500,694.373413 134.854324,680.226318 
	C134.223663,663.301147 131.313995,646.730225 126.514145,630.380493 
	C122.963760,618.286865 116.879089,607.543152 111.459930,596.394287 
	C105.543243,584.221741 97.117348,573.794189 89.210022,562.930603 
	C77.326332,546.604126 63.159821,532.310242 50.141075,517.004517 
	C38.727375,503.585754 39.636932,483.900146 51.857471,471.154572 
	C58.823059,463.889771 64.549568,455.446167 70.961540,447.638062 
	C75.076569,442.627045 79.546967,437.907043 83.641762,432.880402 
	C92.766754,421.678802 102.609970,410.901978 109.441521,398.115295 
	C115.494438,386.786011 121.192093,375.202606 124.160210,362.464813 
	C125.465385,356.863586 127.975159,351.592102 128.956207,345.775482 
	C131.458649,330.938477 135.508255,316.338043 135.024750,301.087860 
	C134.866409,296.093262 135.110992,291.086731 134.994843,286.089752 
	C134.609512,269.511444 142.552902,257.375305 155.842056,248.664795 
	C161.586227,244.899750 168.624817,243.420609 174.876801,240.228317 
	C192.040955,231.464127 209.635178,223.544617 227.022583,215.214386 
	C240.216263,208.893387 253.481964,202.703766 266.480957,196.000656 
	C280.048492,189.004364 293.845520,182.454254 307.593964,175.873550 
	C322.406830,168.783340 336.949066,161.120178 351.975800,154.452438 
	C361.681641,150.145706 371.060760,145.100250 380.569244,140.351685 
	C395.253387,133.018372 409.949463,125.721375 424.827728,118.774551 
	C440.459106,111.476128 455.653870,103.239525 471.311707,96.001907 
	C486.721405,88.878983 502.221436,88.611107 517.884644,96.349281 
	C535.140137,104.874115 552.856628,112.460571 570.233521,120.746712 
	C590.175293,130.255936 609.935852,140.144226 629.828918,149.756516 
	C647.912964,158.494736 666.101929,167.015854 684.183472,175.759277 
	C699.446289,183.139694 714.590576,190.765274 729.847107,198.158997 
	C738.816284,202.505707 747.932617,206.547958 756.928894,210.839951 
	C772.673767,218.351547 788.369629,225.965576 804.100220,233.507126 
	C816.531616,239.467026 829.616150,244.359940 841.275757,251.563629 
	C857.734192,261.732239 865.425842,279.591980 856.832092,298.932281 
	C848.883118,316.821350 818.892273,327.485779 799.333679,317.936859 
	C776.218750,306.651611 752.735901,296.121460 729.442932,285.199127 
	C707.811096,275.055756 686.182983,264.902985 664.626221,254.601685 
	C654.902893,249.955215 645.351318,244.964417 635.557373,240.441376 
	C615.532104,231.193253 595.809265,221.284500 575.717285,212.187958 
	C553.016968,201.910492 530.926941,190.352203 508.168274,180.241058 
	C497.299469,175.412308 485.380676,175.342941 474.628876,180.240234 
	C447.868103,192.429367 421.529968,205.544128 394.979767,218.198364 
	C370.234436,229.992355 345.439514,241.682343 320.657318,253.398880 
	C291.540649,267.164673 262.414062,280.909515 233.293625,294.667389 
	C232.993790,294.809052 232.738159,295.095703 232.429642,295.160095 
	C220.253922,297.700714 222.054581,307.869324 221.268814,316.258820 
	C220.009918,329.699585 217.109589,342.859253 214.908051,356.127930 
	C213.807541,362.760712 210.830566,369.069489 208.866577,375.574432 
	C205.256897,387.530121 200.791245,399.124634 194.391663,409.881744 
	C190.423477,416.551849 187.179382,423.629181 182.246109,429.764526 
	C176.430695,436.996948 171.248779,444.735992 165.512558,452.035645 
	C159.762283,459.353149 153.596909,466.342896 147.746460,473.583740 
	C143.256134,479.141113 138.939407,484.840332 134.611588,490.526794 
	C132.614304,493.151093 134.145782,495.106842 135.997757,497.048523 
	C150.020325,511.750427 162.573578,527.710449 174.844788,543.837952 
	C186.931641,559.723022 197.105469,576.941467 204.598648,595.487366 
	C213.231613,616.854248 218.555206,639.035950 220.291336,662.168823 
	C221.264053,675.129578 222.243744,688.047363 222.086319,701.039185 
	C222.058182,703.360779 223.132828,704.614563 225.123138,705.663574 
	C234.238907,710.468445 243.245117,715.474976 252.889755,719.207153 
	C258.164581,721.248413 262.818909,724.527832 267.950653,726.931946 
	C286.297058,735.526733 304.449951,744.534851 322.670441,753.398132 
	C343.599152,763.578674 364.478973,773.860779 385.460266,783.931702 
	C403.247131,792.469360 421.224915,800.611023 438.972473,809.228088 
	C451.381927,815.253235 463.530304,821.814575 475.823883,828.080383 
	C486.681641,833.614319 497.835236,835.060547 509.567291,830.804932 
	C524.921692,825.235413 539.103638,817.169739 553.876831,810.366821 
	C563.978333,805.715210 574.024780,800.943665 584.080688,796.193787 
	C599.832581,788.753418 615.577454,781.298035 631.314575,773.826416 
	C646.453430,766.638916 661.608704,759.484924 676.701599,752.201843 
	C692.397949,744.627625 707.997253,736.852234 723.696899,729.284912 
	C737.596130,722.585205 751.535950,715.966309 765.538940,709.486755 
	C770.721558,707.088562 773.121704,703.961731 773.203430,697.689331 
	C773.839539,648.864807 773.829712,600.040588 773.781494,551.215149 
	C773.773560,543.155579 773.736633,543.124573 765.803955,543.124817 
	C663.308411,543.128479 560.812866,543.099792 458.317444,543.210693 
	C446.865753,543.223083 432.283234,536.564087 428.430603,522.043640 
	C426.375549,514.298157 428.217499,506.959045 433.293457,500.986145 
	C445.238373,486.930420 458.061157,473.598938 469.616394,459.240173 
	C480.656769,445.521057 492.630493,432.620087 503.777130,418.994019 
	C510.258209,411.071289 516.650818,402.902466 523.974121,395.635193 
	C526.108459,393.517120 527.797424,391.070679 529.650208,388.730225 
	C540.815369,374.626373 560.684570,367.545319 577.660034,379.702728 
	C587.866760,387.012543 590.146729,401.124420 583.923828,411.310699 
	C577.314392,422.129822 568.349365,431.211182 560.023010,440.729645 
	C551.936035,449.974335 543.786377,459.164185 535.694397,468.343903 
	C537.110535,470.779022 539.151489,469.972717 540.801880,470.011597 
	C598.786438,471.377869 656.780762,470.503265 714.770752,470.711731 
	C752.434692,470.847107 790.108032,470.358368 827.759949,471.064453 
	C847.761230,471.439514 861.890320,484.730591 862.008850,505.178925 
	C862.427002,577.340149 862.375488,649.505615 862.120728,721.668152 
	C862.068726,736.413879 855.672241,749.353455 842.181335,755.661133 
	C821.130188,765.503540 800.862427,776.982056 778.988525,785.945679 
z"/>
</svg>