<svg version="1.1" id="Layer_1" xmlns="http://www.w3.org/2000/svg" xmlns:xlink="http://www.w3.org/1999/xlink" x="0px" y="0px"
	 width="100%" viewBox="0 0 1024 1024" enable-background="new 0 0 1024 1024" xml:space="preserve">
<path id="top-right-top" fill="blue" opacity="1.000000" stroke="none"
	d="
M555.392395,138.749542
	C555.191956,114.378769 564.832092,93.978180 581.352051,76.665154
	C584.830017,73.020248 589.502258,70.514946 593.882935,67.256577
	C605.464844,71.812912 616.971191,76.208893 628.079468,81.448677
	C676.557251,104.315567 724.859009,127.555679 773.341064,150.413345
	C818.955688,171.919083 864.714355,193.119278 910.414001,214.444443
	C920.970947,219.370697 931.718445,223.923645 942.064392,229.257217
	C952.661621,234.720352 961.219666,242.425491 965.237183,254.216217
	C971.425293,272.377167 959.119934,290.540985 944.061646,297.069061
	C929.201355,303.511322 914.827942,302.107300 900.671326,295.385559
	C868.343323,280.035736 836.122437,264.460052 803.794739,249.109543
	C762.892578,229.687500 721.964600,210.318649 680.977783,191.076080
	C647.378540,175.301895 613.804077,159.461334 579.920410,144.317352
	C572.547058,141.021896 563.904114,140.567093 555.392395,138.749542
z"/>
<path id="left-most-part" fill="orange" opacity="1.000000" stroke="none"
	d="
M243.839996,750.327637
	C233.929901,754.838989 224.098129,758.883118 214.292648,762.989990
	C197.400223,770.065369 180.519684,777.169067 163.648056,784.293762
	C161.966049,785.004028 160.380127,785.941772 158.490051,786.994873
	C156.480911,783.076172 153.430939,779.001831 153.219177,774.785034
	C152.509933,760.661804 153.118393,746.477722 152.651367,732.335754
	C152.112625,716.022461 150.500351,699.802734 146.041290,683.984558
	C144.779099,679.507080 143.680710,674.941467 143.025162,670.342468
	C140.742752,654.330322 132.529800,640.536438 125.960526,626.279846
	C120.802910,615.086792 113.759361,604.514893 106.172401,594.739014
	C88.526085,572.001526 70.310120,549.689270 51.794750,527.650085
	C42.137508,516.154907 42.509109,499.026855 51.716072,488.295502
	C76.336075,459.599335 99.926613,430.069641 122.057091,399.410858
	C130.304657,387.984924 134.740723,374.660950 138.771133,361.279449
	C141.266541,352.994354 144.322678,344.785858 145.812561,336.311859
	C148.022781,323.740662 149.063400,310.964020 150.610031,298.275848
	C152.239105,284.911224 153.076538,271.384735 155.752808,258.232788
	C158.108597,246.655685 165.868057,237.846909 176.313217,232.486069
	C189.458054,225.739639 203.185654,220.137634 216.575409,213.857635
	C245.788345,200.156311 274.934174,186.311920 304.130676,172.575439
	C336.191437,157.491379 368.316254,142.543015 400.340057,127.381142
	C420.632568,117.773514 440.665436,107.611176 461.042023,98.189049
	C487.152100,86.115753 513.379211,74.279099 539.776733,62.850723
	C553.358521,56.970741 567.534729,56.862701 581.585083,61.841469
	C585.640503,63.278515 589.607727,64.964317 593.619812,67.010315
	C589.502258,70.514946 584.830017,73.020248 581.352051,76.665154
	C564.832092,93.978180 555.191956,114.378769 554.938904,138.695099
	C533.740845,148.362259 512.493164,157.922485 491.356812,167.722794
	C462.815765,180.956421 434.364258,194.383087 405.866913,207.711060
	C380.836151,219.417770 355.759705,231.027527 330.768616,242.818207
	C305.478455,254.749985 280.281219,266.878662 255.013626,278.858490
	C248.943085,281.736633 245.522186,285.398712 244.779312,293.018005
	C243.121353,310.022888 241.313950,327.279541 236.814987,343.678497
	C230.105179,368.136078 224.162384,393.054260 210.983978,415.317535
	C199.571014,434.598267 186.101349,452.331421 171.708099,469.413177
	C163.018951,479.725372 154.256088,489.977142 145.399384,500.145447
	C142.673676,503.274780 142.433548,505.715393 145.227158,509.159698
	C154.755539,520.907471 163.828278,533.023682 173.288071,544.828491
	C190.817810,566.703613 206.537064,589.844177 218.573364,615.117371
	C224.676712,627.932861 227.813858,642.141724 232.583954,655.617310
	C236.727737,667.323547 239.126434,679.327515 239.964432,691.682190
	C241.280457,711.084778 242.607697,730.486633 243.839996,750.327637
z"/>
<path id="right-bottom" fill="red" opacity="1.000000" stroke="none"
	d="
M243.749832,750.766541
	C281.412903,773.261780 322.293579,789.186890 361.603088,808.315552
	C404.710022,829.292175 448.307465,849.258728 491.587006,869.884033
	C507.623657,877.526428 523.179382,886.195251 539.332825,893.566833
	C545.705688,896.475098 553.078979,898.250549 560.055359,898.445435
	C565.738708,898.604309 571.758972,896.234680 577.196655,893.953613
	C597.290100,885.524597 617.431519,877.151123 637.141235,867.877686
	C690.301514,842.865417 743.273804,817.452698 796.268311,792.089478
	C816.081604,782.606812 835.747070,772.815491 855.486145,763.177673
	C862.411316,759.796448 865.648682,754.787292 865.644531,746.580444
	C865.615601,689.759399 866.012146,632.938232 866.262878,576.117004
	C866.269531,574.619446 866.172546,573.121338 866.122192,571.623535
	C865.972229,567.159485 863.988220,565.486694 859.230774,565.499451
	C800.239319,565.658386 741.247192,565.693237 682.255554,565.572632
	C626.932434,565.459534 571.609497,565.157959 516.287598,564.775208
	C513.697632,564.757263 510.773376,563.643616 508.606476,562.160950
	C504.089966,559.070618 499.740662,555.641479 495.758209,551.889282
	C490.908691,547.320068 492.556671,541.537231 493.692688,535.963318
	C495.410065,527.536804 501.123352,521.646484 506.499786,515.528259
	C512.415100,508.796814 518.324890,502.060516 524.227234,495.317749
	C538.157593,479.403809 552.089355,463.491089 566.006836,447.565857
	C577.718689,434.164368 589.184143,420.537628 601.212036,407.426514
	C606.884521,401.243103 612.748657,394.992737 621.342346,392.341736
	C632.956482,388.758881 646.931519,392.961212 653.871704,402.822266
	C658.816528,409.848114 658.843689,417.637207 655.455872,425.135345
	C653.513000,429.435394 650.511597,433.409027 647.371277,436.989899
	C633.643616,452.643677 619.621094,468.038788 605.888428,483.688171
	C603.603760,486.291687 602.225708,489.690674 599.824341,493.741577
	C603.082275,493.932495 604.832703,494.121094 606.583557,494.125183
	C664.241821,494.260468 721.900146,494.354767 779.558350,494.508301
	C807.374695,494.582367 835.190796,494.788788 863.007080,494.887207
	C884.144958,494.961975 905.285156,494.794983 926.420288,495.058807
	C938.123657,495.204895 946.825562,500.523895 952.845337,510.917267
	C958.912903,521.393005 958.345642,532.862427 958.399597,543.992432
	C958.764771,619.313538 958.910339,694.638245 958.530212,769.958740
	C958.426880,790.433838 948.921631,805.531372 929.126221,813.936768
	C907.079346,823.298096 885.432068,833.621094 863.763672,843.848999
	C815.295166,866.727112 766.884338,889.728271 718.521362,912.828552
	C681.872070,930.333862 645.367065,948.141235 608.720642,965.652649
	C599.576477,970.022156 590.312500,974.262817 580.790100,977.692261
	C563.731506,983.835693 546.894226,981.679016 530.812256,974.051453
	C482.380920,951.080933 434.163177,927.658142 385.658936,904.843750
	C339.713593,883.232971 293.473846,862.249023 247.438766,840.827759
	C226.002502,830.852966 204.699020,820.588806 183.424423,810.272156
	C172.984024,805.209290 165.453049,796.705566 158.534271,787.309814
	C160.380127,785.941772 161.966049,785.004028 163.648056,784.293762
	C180.519684,777.169067 197.400223,770.065369 214.292648,762.989990
	C224.098129,758.883118 233.929901,754.838989 243.749832,750.766541
z"/>
</svg>